<svg viewBox="0 0 512 512" xmlns="http://www.w3.org/2000/svg">
  <!-- Background -->
  <g id="background">
    <rect width="512" height="512" rx="104" fill="#FFFFFF" stroke="#EBEBF0" stroke-width="2"/>
  </g>

  <!-- Flame / F Icon -->
  <g id="flame-icon" transform="translate(256, 256)">
    <!-- Back flame (dark gold, offset right) -->
    <g id="flame-back">
      <path
        d="M 12,-140
           C 12,-140 52,-80 52,-30
           C 52,10 68,30 68,65
           C 68,110 40,145 -5,155
           C -45,163 -75,140 -90,110
           C -100,88 -95,58 -75,40
           C -55,22 -30,28 -25,50
           C -20,68 -35,78 -50,72
           C -42,69 -35,55 -30,52
           C -20,45 -10,55 -12,70
           C -15,90 5,95 20,85
           C 40,72 48,42 40,15
           C 32,-15 10,-45 0,-75
           C -8,-100 12,-140 12,-140 Z"
        fill="#92710A"
        transform="translate(18, -8)"
      />
    </g>

    <!-- Front flame (bright gold, main shape) -->
    <g id="flame-front">
      <path
        d="M -8,-148
           C -8,-148 -48,-85 -48,-35
           C -48,5 -65,28 -65,65
           C -65,115 -32,148 15,158
           C 55,166 85,138 98,105
           C 107,80 100,48 78,30
           C 58,14 35,22 30,46
           C 26,64 40,76 55,70
           C 48,67 42,52 36,48
           C 26,40 15,52 18,68
           C 22,90 2,96 -14,86
           C -35,74 -44,44 -36,15
           C -28,-18 -5,-48 5,-80
           C 13,-108 -8,-148 -8,-148 Z"
        fill="#E8C84A"
      />
    </g>

    <!-- Inner highlight (light gold, small inner flame) -->
    <g id="flame-highlight">
      <path
        d="M 5,-60
           C 5,-60 -18,-30 -18,0
           C -18,20 -28,32 -28,52
           C -28,75 -12,92 12,96
           C 32,99 48,86 54,68
           C 58,55 54,38 42,28
           C 33,20 22,25 20,38
           C 18,48 26,54 34,50
           C 30,48 28,40 24,38
           C 19,34 14,42 16,50
           C 18,60 8,64 -2,58
           C -14,52 -18,36 -14,20
           C -10,2 2,-15 8,-32
           C 12,-45 5,-60 5,-60 Z"
        fill="#F5E6C4"
      />
    </g>
  </g>
</svg>